<?xml version="1.0" standalone="no"?>
<!DOCTYPE svg PUBLIC "-//W3C//DTD SVG 20010904//EN"
 "http://www.w3.org/TR/2001/REC-SVG-20010904/DTD/svg10.dtd">
<svg version="1.0" xmlns="http://www.w3.org/2000/svg"
 width="318.000000pt" height="214.000000pt" viewBox="0 0 318.000000 214.000000"
 preserveAspectRatio="xMidYMid meet">

<g transform="translate(0.000000,214.000000) scale(0.100000,-0.100000)"
fill="#000000" stroke="none">
<path d="M0 1070 l0 -1070 1590 0 1590 0 0 1070 0 1070 -1590 0 -1590 0 0
-1070z m3140 0 l0 -1030 -1550 0 -1550 0 0 1030 0 1030 1550 0 1550 0 0 -1030z"/>
<path d="M1890 1589 c-6 -24 -13 -51 -16 -60 -2 -9 2 -21 9 -28 12 -9 13 -7
10 11 -2 13 0 43 6 68 13 58 6 65 -9 9z"/>
<path d="M2054 1554 c-20 -86 -36 -108 -68 -99 -16 5 -18 4 -6 -4 13 -9 11
-24 -14 -118 -48 -181 -39 -171 20 20 26 87 26 87 60 87 l34 0 0 95 c0 52 -2
95 -4 95 -2 0 -12 -34 -22 -76z"/>
<path d="M2246 1433 c-14 -21 -26 -42 -26 -48 1 -5 108 -75 240 -155 132 -80
239 -148 240 -151 0 -3 -108 -72 -240 -153 -132 -82 -240 -151 -240 -154 0
-10 52 -82 59 -82 3 1 123 74 266 163 l260 163 3 60 3 61 -248 153 c-136 84
-258 160 -270 167 -20 13 -23 12 -47 -24z"/>
<path d="M617 1293 l-268 -165 3 -61 3 -60 264 -165 264 -165 28 34 c16 19 29
39 29 45 0 6 -108 78 -239 159 -132 82 -238 152 -235 156 2 4 112 73 243 154
l239 147 -26 44 c-15 24 -29 43 -32 43 -3 0 -126 -74 -273 -166z"/>
<path d="M1525 1303 c-41 -22 -134 -94 -169 -132 -29 -31 -30 -31 -13 -66 30
-62 72 -58 153 17 24 22 44 37 44 32 0 -19 59 102 60 122 0 22 -17 44 -34 44
-6 -1 -24 -8 -41 -17z m45 -33 c-6 -11 -8 -25 -5 -30 10 -15 -21 -64 -65 -104
-55 -50 -79 -60 -113 -47 -43 17 -36 51 21 102 93 83 189 130 162 79z"/>
<path d="M1695 1226 c-27 -19 -77 -60 -112 -91 l-63 -56 15 -29 c19 -36 49
-54 80 -46 12 3 46 26 74 52 28 25 51 42 51 37 0 -10 22 27 51 86 39 80 -11
105 -96 47z m75 -46 c-7 -37 -19 -55 -69 -102 -34 -32 -71 -58 -82 -58 -34 0
-59 19 -59 45 0 38 190 188 212 167 3 -4 3 -27 -2 -52z"/>
<path d="M1861 1149 c-12 -16 -24 -42 -27 -59 -5 -21 -18 -37 -50 -55 -25 -14
-74 -53 -109 -87 l-65 -60 17 -29 c33 -55 79 -50 152 17 23 20 41 32 41 28 0
-10 31 53 55 111 l16 39 -27 -24 -27 -25 7 44 c8 53 33 104 49 98 7 -2 14 -17
17 -33 l6 -29 7 34 c11 51 9 56 -17 57 -16 1 -31 -8 -45 -27z m-61 -180 c0 -5
7 -6 15 -3 24 9 18 -21 -10 -55 -55 -65 -134 -89 -157 -48 -8 15 0 28 44 72
45 45 57 52 81 48 15 -3 27 -9 27 -14z"/>
</g>
</svg>
